PathFileType	4	(X/Y/Z)	Apose_0-50.trc
DataRate	CameraRate	NumFrames	NumMarkers	Units	OrigDataRate	OrigDataStartFrame	OrigNumFrames
30	30	9	22	m	30	20	50
Frame#	Time	Hip			RHip			RKnee			RAnkle			RBigToe			RSmallToe			RHeel			LHip			LKnee			LAnkle			LBigToe			LSmallToe			LHeel			Neck			Head			Nose			RShoulder			RElbow			RWrist			LShoulder			LElbow			LWrist		
		X1	Y1	Z1	X2	Y2	Z2	X3	Y3	Z3	X4	Y4	Z4	X5	Y5	Z5	X6	Y6	Z6	X7	Y7	Z7	X8	Y8	Z8	X9	Y9	Z9	X10	Y10	Z10	X11	Y11	Z11	X12	Y12	Z12	X13	Y13	Z13	X14	Y14	Z14	X15	Y15	Z15	X16	Y16	Z16	X17	Y17	Z17	X18	Y18	Z18	X19	Y19	Z19	X20	Y20	Z20	X21	Y21	Z21	X22	Y22	Z22
21	0.7	0.04161669591222689	0.9216807084302316	0.360636531673607	0.03442775397651914	0.8971454704279437	0.47473868256905666	0.0026801119799786466	0.5071229041403644	0.5024882011690348	-0.011072196362142258	0.10037726451766397	0.5172271537718091	0.20620505287915553	0.040394445028889635	0.5635466347726877	0.14958498246093077	0.03373538837147592	0.6157536261722959	-0.0571678991044026	0.0280136288718932	0.5042905341684882	0.03213072301901569	0.8934704142823068	0.24691726431738187	0.013529123715389672	0.5094532559924437	0.22387215908483268	0.0033975795623848873	0.11574965934714633	0.21180850950932292	0.2086177177570531	0.03858865872080933	0.1902603065728947	0.16137098015877718	0.03828277217354751	0.13218268964788393	-0.032940531662547956	0.03973464636155542	0.22263709098155463	0.0636943524969502	1.5613337396925806	0.3496275137557226	0.24173359487347817	1.7723366258389306	0.3191492975341931	0.3301063191025206	1.6150451866628688	0.3451541641050578	0.027019498355386706	1.4933994224589877	0.5386762588779855	0.07299500103147977	1.2411804704068883	0.7201988253393343	0.12105563330172253	1.0428564254938024	0.8924019548525004	0.01749916861294137	1.4748502483373171	0.1462670058024565	0.0248080628394501	1.2271368256797124	0.002439066428744153	0.0859359042671765	1.015895199208578	-0.1455026936555071
22	0.7333333333333333	0.03969777229179559	0.9209068352473101	0.359078030850864	0.03299421117521315	0.8954819252576177	0.4734459672507737	0.0018879350671490757	0.5066132791252846	0.5006486948150413	-0.010466336825945562	0.09828214204739795	0.5179575401817893	0.20656916468731684	0.041192713750177884	0.5613490268551072	0.14912815843419785	0.0325751752248271	0.6140231582093474	-0.05420544989879534	0.029845849501052797	0.5049360243374137	0.03346349480430655	0.892529655806369	0.24370561467128496	0.013788754069042636	0.5085558181795092	0.22309375777581728	0.0017049291945679319	0.11835069394672441	0.21077482113408377	0.2070038432868213	0.034852095450679736	0.19144757958257544	0.16073405990106976	0.03577715594907312	0.13038473938232853	-0.036116408419922474	0.038821232771321296	0.22145338520022648	0.0645996763991355	1.5636376490016846	0.35037331323472987	0.23909690202131248	1.771473061121949	0.3203019524173657	0.332173357529526	1.616514785031544	0.3435048648649522	0.027506759097560878	1.4930775357920132	0.5377966856278905	0.07301119641654155	1.2415587733773326	0.7198895287829137	0.12165306621788835	1.041683194641899	0.8937325957290109	0.01716558743236124	1.47513344026493	0.1490709465389755	0.026305290949040317	1.2272629023667945	0.003697081615758099	0.08759353897574906	1.0179715656836061	-0.14591842574314087
23	0.7666666666666667	0.040526881162420154	0.9194992023643386	0.35922119168926314	0.03436201429036868	0.8947313368483981	0.4745469960497032	0.0029164449666452055	0.5038423254972462	0.4978007925649492	-0.010129203559741826	0.09962719787127478	0.5178370161350939	0.20711483356268554	0.04119342075248423	0.5604492269081546	0.14784272006837282	0.03500643357037235	0.613797077029653	-0.05550397731820421	0.03308881535081008	0.5050038969540676	0.034057984183830554	0.8913670661202333	0.24476511743336873	0.015553346898115673	0.5054223966516721	0.22230407184491746	0.002056613520757026	0.11618224087402021	0.20899943920525588	0.20943170525350244	0.03568649242712708	0.1879238264287731	0.16276755009587152	0.036414307239483364	0.1306992056786871	-0.035113392415672344	0.03485592508849651	0.22050754803645872	0.0657985514071155	1.5627456538981976	0.3473152258815797	0.2401820414637146	1.772459028462163	0.31747716583960495	0.3264656289729851	1.617018909143222	0.34549046527907323	0.03053430487186283	1.4934618445035057	0.5382618748503142	0.07407882362853034	1.240539125181659	0.7185748708864331	0.12295133457605974	1.0445996642507347	0.8934239079338352	0.015794415069412357	1.4755531726057363	0.1493732737127664	0.027143818792028384	1.2273611488512963	0.0013661410444248845	0.09044315272029285	1.0165761079770208	-0.14741196251008068
24	0.8	0.04147822011336363	0.919166683254127	0.3589768320794693	0.03364250424866369	0.8978251259630956	0.47625195653401375	0.0014770786376702243	0.5031689572189759	0.49542935975911845	-0.01151475007581976	0.096335818296234	0.5168035660297368	0.21021465836140318	0.04104778094613953	0.5646583920637385	0.13894804220029458	0.02313471701780044	0.6269207539709383	-0.04106275112328751	0.031472546390095626	0.4959136331706385	0.03486999918930554	0.8922555326161637	0.24700829504437016	0.01539115694743785	0.5064037786110587	0.2234204362216688	0.0028460979502306625	0.11511521863889525	0.2078061575085806	0.21196870070458765	0.03989610821150542	0.18485176610882478	0.1645969449899008	0.03911284008730909	0.1256629577983362	-0.035202617629011126	0.035739618454976	0.22190352387538767	0.06769154686868185	1.5609411612339334	0.34471884068559877	0.23833691398845222	1.7747076959752484	0.3172159143164566	0.3235192166381597	1.6170083701221056	0.34632474916453937	0.030882182079216437	1.492051912675935	0.5378846083752937	0.07030389366747936	1.2418865073006522	0.7201099315273941	0.12338894543522233	1.0458733504150968	0.8926902436060031	0.016802932626078106	1.4767517475076457	0.1494373124578704	0.02831246467371952	1.229019268859538	0.0036452475578346104	0.0899405400397342	1.0160454424662424	-0.147081890347071
25	0.8333333333333334	0.04101296636519159	0.921441548265222	0.3584845093456771	0.032648475547780303	0.8962164180747588	0.47326917720880046	0.006074725916268384	0.5071754332234742	0.4992593746370487	-0.013317815067003684	0.09888275655374067	0.5173837433863921	0.2098486168934079	0.042463576217124266	0.5621348866897674	0.14920960169420228	0.0342409226194527	0.6184999297833497	-0.05874391924156818	0.029120308624245538	0.5031252740890003	0.032733704058183294	0.8920797119892021	0.2454588064100404	0.015722866460303957	0.5078118949251648	0.22323937508426087	8.718477725050346e-05	0.11865045947796798	0.21225908268048618	0.21008347988069323	0.040443357321825364	0.18707018494455624	0.1639864599553	0.04052737084766228	0.1283555332965435	-0.036182625355819696	0.03628553195170156	0.21921377035860268	0.06616239015421387	1.5631546901930675	0.34492818701729966	0.30624338466589285	1.768240599822733	0.27037094671103407	0.3249753887496469	1.617910874644022	0.3406608539436572	0.02866503227047823	1.4933201009833286	0.5393014025939379	0.07044604010586206	1.241380569052787	0.7195379258133066	0.12133226108430226	1.0435792806426318	0.8904244897055243	0.014465026406447527	1.4743214891266476	0.14841939977703356	0.0263783421764173	1.224839800410877	0.0011884244465326062	0.08980622515103992	1.0172933883511137	-0.14756426246009507
26	0.8666666666666667	0.03955449313677918	0.92085871234197	0.3596029031104078	0.03523266177160798	0.8968395517451891	0.47529488468402303	0.006835280205298123	0.5064678630067719	0.5016097874395493	-0.01246579366381331	0.0960687756714821	0.5166065469130551	0.20957075152796795	0.03951811254731521	0.5601633188852634	0.15017683724431877	0.03377763756398141	0.6154328906409284	-0.05963462305979036	0.028567751704898142	0.5018753997363358	0.03410642654392042	0.8905760331105407	0.24719916449376106	0.015351194492374348	0.5095713590623323	0.22300515308823154	0.004422105790672143	0.10842408830326569	0.20719494716829964	0.2074310916951054	0.0405259260841748	0.19091314987314234	0.1618339936703171	0.04055614132987111	0.13087964961165832	-0.035237423894645105	0.03785094764743133	0.22028000146710927	0.061647502825005196	1.5669322812700996	0.34790069617996916	0.23141075738944566	1.774730954669511	0.3226799898044148	0.23663721667760326	1.58459575220292	0.3228225241421456	0.029693310420370725	1.4916106655215093	0.5391164131735333	0.07097927023731573	1.2290342136747712	0.7208606024633878	0.1221859635944313	1.043998653814945	0.8866360034099655	0.013970303621775747	1.4737122692700417	0.14869757933570907	0.02675837158309159	1.2258152556451924	0.0009265564937209607	0.0889332906341683	1.0170570208564154	-0.14820290388502913
27	0.9	0.04106818011301439	0.921001650674939	0.35751396609706393	0.034945538573331665	0.8950056803426372	0.47225795082959	0.005744993891988956	0.5079420386473	0.501894926226554	-0.012263084500392537	0.09735930901733347	0.5170237989732502	0.20847886750694802	0.039562526721243885	0.5595365447875857	0.14996942299284774	0.03183724063945346	0.6158602458414568	-0.05806461753005178	0.028567053281469995	0.5048518885565813	0.03393524753543567	0.8924375319093586	0.24312467295971457	0.024835005723783415	0.49478010755489427	0.21363296778836827	0.004013078011812153	0.1102756209725946	0.20708145091897054	0.21020598157288078	0.03789312810771692	0.1878766401611405	0.16490331419875243	0.04000646794157771	0.12876604048608548	-0.0333712189477598	0.04085854278531018	0.2204912207083211	0.06466316338876625	1.564957563386257	0.34686562896869677	0.31051059992240765	1.7658574387575112	0.2644006917733045	0.327754877564829	1.6220089689571924	0.3415009356437598	0.030055863441391363	1.493714558930764	0.538474535057143	0.05838226152866255	1.2379715048461883	0.7129997067873558	0.12347136210330681	1.0417868923714004	0.8909758726938078	0.013035989787052053	1.4729954207529585	0.14777930287342192	0.026552350392386747	1.2266655186952804	0.0029077207112915434	0.08902030274979439	1.018163864153128	-0.14585030970728954
28	0.9333333333333333	0.041702934039112204	0.9205329243531097	0.3571427954942551	0.03559492579754977	0.8927987228532966	0.4716299492496035	0.008464674101128066	0.5091626048561558	0.5024818075309146	-0.012201961290605762	0.09958627130135833	0.5185059798005118	0.2063535962837006	0.04154427457888606	0.5597913999951901	0.1481215421081578	0.03272931807730908	0.6159120042697733	-0.05907223983124798	0.028142070982629514	0.5042064746676772	0.034461193053640614	0.8901857874925873	0.24367242887680648	0.025012070024525313	0.4942607293902679	0.21449708996299882	0.0032267727578000754	0.10886124153324285	0.20655648589896616	0.2091850499791259	0.03770636014017834	0.18588612294146356	0.162246656906444	0.04132721106969082	0.1287998344566944	-0.03563902286587413	0.04035717877936332	0.2210106830525271	0.06430825744708397	1.5652265893662096	0.34580806605769265	0.31045845326114796	1.7660154842467704	0.26343284955735446	0.3254868940691566	1.6240750514303237	0.3401124282885926	0.030467524772483646	1.4935028720952894	0.5383950659607213	0.07381093215803365	1.2290913367421554	0.7246340991305937	0.1244461732549748	1.0425226566596415	0.8882561195912457	0.015812691457413187	1.4738290482897696	0.14614261159780573	0.025960027730061248	1.2255656307158154	0.0021138107809456044	0.09087384885137484	1.0184770589455658	-0.1435451382635784
29	0.9666666666666667	0.0418639827885984	0.9222657941734005	0.3572728665219014	0.03409296705160588	0.8950220694172341	0.47398998861879843	0.008428015762155043	0.5102397286309115	0.5028792802787784	-0.010976515359352722	0.09988723416998524	0.5159055176347723	0.2119552095829368	0.04320930000759208	0.5612606083067779	0.14955462112825352	0.033438454306618064	0.6146031766168921	-0.0594773429961843	0.026710496749609444	0.5014824849420287	0.03491639955381748	0.8905006525921642	0.24481786082632565	0.01715200031449753	0.5092902342070951	0.22426256251481722	0.0047053510141736475	0.10817141931180577	0.2066520664144196	0.20970718902940727	0.038494980054072245	0.18847837107805662	0.16367405307527735	0.04116487180655155	0.13116845581974523	-0.034267426335930676	0.03974728873765451	0.22156935185646173	0.0650551976307282	1.565474226911809	0.346227109172792	0.23000155295535482	1.776773225343612	0.3224845307345812	0.3228692730773015	1.623573613848252	0.3401945984674524	0.027642070403664704	1.4930721470623587	0.5393719253366673	0.07001226257397195	1.2293915289275914	0.7235736949295647	0.12761518042578202	1.040792588698396	0.8878564503192143	0.017609017746943532	1.4762010177982063	0.14473593599283485	0.0276631838159977	1.2259749771359625	0.0012099328616840125	0.08862089973746766	1.01682742485811	-0.14599760144923205
